<?xml version="1.0" encoding="UTF-8"?>
<svg height="16px" viewBox="0 0 16 16" width="16px" xmlns="http://www.w3.org/2000/svg" xmlns:xlink="http://www.w3.org/1999/xlink">
    <filter id="a" height="100%" width="100%" x="0%" y="0%">
        <feColorMatrix color-interpolation-filters="sRGB" values="0 0 0 0 1 0 0 0 0 1 0 0 0 0 1 0 0 0 1 0"/>
    </filter>
    <mask id="b">
        <g filter="url(#a)">
            <rect fill-opacity="0.1" height="19.2" width="19.2" x="-1.6" y="-1.6"/>
        </g>
    </mask>
    <clipPath id="c">
        <rect height="152" width="192"/>
    </clipPath>
    <mask id="d">
        <g filter="url(#a)">
            <rect fill-opacity="0.1" height="19.2" width="19.2" x="-1.6" y="-1.6"/>
        </g>
    </mask>
    <clipPath id="e">
        <rect height="152" width="192"/>
    </clipPath>
    <g mask="url(#b)">
        <g clip-path="url(#c)" transform="matrix(1 0 0 1 -168 -16)">
            <path d="m 124.195312 114.582031 c -0.074218 4.09375 -3.023437 7.347657 -6.699218 7.347657 h -43.378906 l 42.929687 2 h 0.449219 c 2.902344 0 5.417968 -1.8125 6.699218 -4.484376 z m 0 0"/>
        </g>
    </g>
    <g mask="url(#d)">
        <g clip-path="url(#e)" transform="matrix(1 0 0 1 -168 -16)">
            <path d="m 124.195312 118.582031 c -0.074218 4.09375 -3.023437 7.347657 -6.699218 7.347657 h -34.4375 l 33.988281 2 h 0.449219 c 2.902344 0 5.417968 -1.8125 6.699218 -4.484376 z m 0 0"/>
        </g>
    </g>
    <path d="m 13.601562 1.921875 c -0.445312 0.027344 -0.863281 0.238281 -1.160156 0.570313 l -6.53125 7.46875 l -2.136718 -2.847657 c -0.558594 -0.75 -1.625 -0.898437 -2.375 -0.339843 c -0.355469 0.269531 -0.59375 0.671874 -0.65625 1.117187 c -0.066407 0.445313 0.054687 0.902344 0.324218 1.257813 l 3.386719 4.519531 c 0.308594 0.40625 0.78125 0.660156 1.292969 0.675781 c 0.507812 0.019531 1.003906 -0.195312 1.339844 -0.578125 l 7.90625 -9.039063 c 0.613281 -0.707031 0.542968 -1.773437 -0.15625 -2.390624 c -0.339844 -0.296876 -0.78125 -0.445313 -1.234376 -0.414063 z m 0 0"/>
</svg>
